<?xml version="1.0" encoding="UTF-8" standalone="no"?>
<!-- Created with Inkscape (http://www.inkscape.org/) -->

<svg
   xmlns:dc="http://purl.org/dc/elements/1.1/"
   xmlns:cc="http://creativecommons.org/ns#"
   xmlns:rdf="http://www.w3.org/1999/02/22-rdf-syntax-ns#"
   xmlns:svg="http://www.w3.org/2000/svg"
   xmlns="http://www.w3.org/2000/svg"
   xmlns:sodipodi="http://sodipodi.sourceforge.net/DTD/sodipodi-0.dtd"
   xmlns:inkscape="http://www.inkscape.org/namespaces/inkscape"
   width="419.59622"
   height="401.10458"
   id="svg4178"
   version="1.1"
   inkscape:version="0.48.2 r9819"
   sodipodi:docname="ConnectBusToFault.svg"
   inkscape:export-filename="D:\Modelica\FaultTriggering\Resources\Documentation\ConnectBusToFault.png"
   inkscape:export-xdpi="171.65099"
   inkscape:export-ydpi="171.65099">
  <defs
     id="defs4180">
    <clipPath
       id="clipEmfPath1"
       clipPathUnits="userSpaceOnUse">
      <rect
         id="rect4191"
         height="12.507031"
         width="80.044998"
         y="332.68701"
         x="491.52631" />
    </clipPath>
    <clipPath
       id="clipEmfPath2"
       clipPathUnits="userSpaceOnUse">
      <rect
         id="rect4194"
         height="12.507031"
         width="12.507031"
         y="414.73315"
         x="525.29529" />
    </clipPath>
    <clipPath
       id="clipEmfPath3"
       clipPathUnits="userSpaceOnUse">
      <rect
         id="rect4197"
         height="12.507031"
         width="67.537964"
         y="430.24188"
         x="496.52914" />
    </clipPath>
    <clipPath
       id="clipEmfPath4"
       clipPathUnits="userSpaceOnUse">
      <rect
         id="rect4200"
         height="12.507031"
         width="68.788673"
         y="430.24188"
         x="496.52914" />
    </clipPath>
    <clipPath
       id="clipEmfPath5"
       clipPathUnits="userSpaceOnUse">
      <rect
         id="rect4203"
         height="12.507031"
         width="12.507031"
         y="512.28802"
         x="525.29529" />
    </clipPath>
    <clipPath
       id="clipEmfPath6"
       clipPathUnits="userSpaceOnUse">
      <rect
         id="rect4206"
         height="12.507031"
         width="61.284451"
         y="123.81961"
         x="494.02771" />
    </clipPath>
    <clipPath
       id="clipEmfPath7"
       clipPathUnits="userSpaceOnUse">
      <rect
         id="rect4209"
         height="12.507031"
         width="62.535156"
         y="123.81961"
         x="494.02771" />
    </clipPath>
    <clipPath
       id="clipEmfPath8"
       clipPathUnits="userSpaceOnUse">
      <rect
         id="rect4212"
         height="12.507031"
         width="58.783047"
         y="208.36714"
         x="495.27844" />
    </clipPath>
    <clipPath
       id="clipEmfPath9"
       clipPathUnits="userSpaceOnUse">
      <rect
         id="rect4215"
         height="12.507031"
         width="66.287262"
         y="227.62796"
         x="491.52631" />
    </clipPath>
    <clipPath
       id="clipEmfPath10"
       clipPathUnits="userSpaceOnUse">
      <rect
         id="rect4218"
         height="12.507031"
         width="67.537964"
         y="227.62796"
         x="491.52631" />
    </clipPath>
    <clipPath
       id="clipEmfPath11"
       clipPathUnits="userSpaceOnUse">
      <rect
         id="rect4221"
         height="12.507031"
         width="58.783047"
         y="312.17551"
         x="495.27844" />
    </clipPath>
    <clipPath
       id="clipEmfPath12"
       clipPathUnits="userSpaceOnUse">
      <rect
         id="rect4224"
         height="12.507031"
         width="141.32945"
         y="156.83817"
         x="580.57642" />
    </clipPath>
    <clipPath
       id="clipEmfPath13"
       clipPathUnits="userSpaceOnUse">
      <rect
         id="rect4227"
         height="12.507031"
         width="140.07875"
         y="156.83817"
         x="580.57642" />
    </clipPath>
    <clipPath
       id="clipEmfPath14"
       clipPathUnits="userSpaceOnUse">
      <rect
         id="rect4230"
         height="12.507031"
         width="143.83086"
         y="260.89667"
         x="580.57642" />
    </clipPath>
    <clipPath
       id="clipEmfPath15"
       clipPathUnits="userSpaceOnUse">
      <rect
         id="rect4233"
         height="12.507031"
         width="142.58015"
         y="260.89667"
         x="580.57642" />
    </clipPath>
    <clipPath
       id="clipEmfPath16"
       clipPathUnits="userSpaceOnUse">
      <rect
         id="rect4236"
         height="12.507031"
         width="172.59703"
         y="364.95514"
         x="587.08002" />
    </clipPath>
    <clipPath
       id="clipEmfPath17"
       clipPathUnits="userSpaceOnUse">
      <rect
         id="rect4239"
         height="12.507031"
         width="171.34631"
         y="364.95514"
         x="587.08002" />
    </clipPath>
    <clipPath
       id="clipEmfPath18"
       clipPathUnits="userSpaceOnUse">
      <rect
         id="rect4242"
         height="12.507031"
         width="181.35194"
         y="462.50998"
         x="587.08002" />
    </clipPath>
    <clipPath
       id="clipEmfPath19"
       clipPathUnits="userSpaceOnUse">
      <rect
         id="rect4245"
         height="12.507031"
         width="180.10126"
         y="462.50998"
         x="587.08002" />
    </clipPath>
    <clipPath
       id="clipEmfPath20"
       clipPathUnits="userSpaceOnUse">
      <rect
         id="rect4248"
         height="18.760546"
         width="36.27039"
         y="283.40933"
         x="844.22461" />
    </clipPath>
    <clipPath
       id="clipEmfPath21"
       clipPathUnits="userSpaceOnUse">
      <rect
         id="rect4251"
         height="18.760546"
         width="37.521091"
         y="283.40933"
         x="844.22461" />
    </clipPath>
  </defs>
  <sodipodi:namedview
     id="base"
     pagecolor="#ffffff"
     bordercolor="#666666"
     borderopacity="1.0"
     inkscape:pageopacity="0.0"
     inkscape:pageshadow="2"
     inkscape:zoom="1.4"
     inkscape:cx="257.16028"
     inkscape:cy="185.61685"
     inkscape:document-units="px"
     inkscape:current-layer="layer1"
     showgrid="false"
     fit-margin-top="0"
     fit-margin-left="0"
     fit-margin-right="0"
     fit-margin-bottom="0"
     inkscape:window-width="1680"
     inkscape:window-height="998"
     inkscape:window-x="-8"
     inkscape:window-y="-8"
     inkscape:window-maximized="1" />
  <metadata
     id="metadata4183">
    <rdf:RDF>
      <cc:Work
         rdf:about="">
        <dc:format>image/svg+xml</dc:format>
        <dc:type
           rdf:resource="http://purl.org/dc/dcmitype/StillImage" />
        <dc:title></dc:title>
      </cc:Work>
    </rdf:RDF>
  </metadata>
  <g
     inkscape:label="Layer 1"
     inkscape:groupmode="layer"
     id="layer1"
     transform="translate(-165.50723,-332.12256)">
    <g
       id="g4253"
       transform="translate(-311.01065,208.30295)">
      <path
         id="path4255"
         d="m 499.03054,348.94616 1.2507,0 0,63.78586 -1.2507,0 0,-63.78586 z"
         style="fill:#a0a0a0;fill-opacity:1;fill-rule:evenodd;stroke:none"
         inkscape:connector-curvature="0" />
      <path
         id="path4257"
         d="m 499.03054,348.94616 63.78585,0 0,1.25071 -63.78585,0 0,-1.25071 z"
         style="fill:#a0a0a0;fill-opacity:1;fill-rule:evenodd;stroke:none"
         inkscape:connector-curvature="0" />
      <path
         id="path4259"
         d="m 499.03054,412.73202 63.78585,0 0,1.2507 -63.78585,0 0,-1.2507 z"
         style="fill:#a0a0a0;fill-opacity:1;fill-rule:evenodd;stroke:none"
         inkscape:connector-curvature="0" />
      <path
         id="path4261"
         d="m 562.81639,348.94616 1.25071,0 0,65.03656 -1.25071,0 0,-65.03656 z"
         style="fill:#a0a0a0;fill-opacity:1;fill-rule:evenodd;stroke:none"
         inkscape:connector-curvature="0" />
      <path
         id="path4263"
         d="m 500.28124,350.19687 1.2507,0 0,61.28445 -1.2507,0 0,-61.28445 z"
         style="fill:#a0a0a0;fill-opacity:1;fill-rule:evenodd;stroke:none"
         inkscape:connector-curvature="0" />
      <path
         id="path4265"
         d="m 500.28124,350.19687 61.28445,0 0,1.2507 -61.28445,0 0,-1.2507 z"
         style="fill:#a0a0a0;fill-opacity:1;fill-rule:evenodd;stroke:none"
         inkscape:connector-curvature="0" />
      <path
         id="path4267"
         d="m 500.28124,411.48132 61.28445,0 0,1.2507 -61.28445,0 0,-1.2507 z"
         style="fill:#a0a0a0;fill-opacity:1;fill-rule:evenodd;stroke:none"
         inkscape:connector-curvature="0" />
      <path
         id="path4269"
         d="m 561.56569,350.19687 1.2507,0 0,62.53515 -1.2507,0 0,-62.53515 z"
         style="fill:#a0a0a0;fill-opacity:1;fill-rule:evenodd;stroke:none"
         inkscape:connector-curvature="0" />
      <path
         id="path4271"
         d="m 500.28124,350.19687 1.2507,0 0,61.28445 -1.2507,0 0,-61.28445 z"
         style="fill:#ffffff;fill-opacity:1;fill-rule:evenodd;stroke:none"
         inkscape:connector-curvature="0" />
      <path
         id="path4273"
         d="m 500.28124,350.19687 61.28445,0 0,1.2507 -61.28445,0 0,-1.2507 z"
         style="fill:#ffffff;fill-opacity:1;fill-rule:evenodd;stroke:none"
         inkscape:connector-curvature="0" />
      <path
         id="path4275"
         d="m 500.28124,411.48132 61.28445,0 0,1.2507 -61.28445,0 0,-1.2507 z"
         style="fill:#696969;fill-opacity:1;fill-rule:evenodd;stroke:none"
         inkscape:connector-curvature="0" />
      <path
         id="path4277"
         d="m 561.56569,350.19687 1.2507,0 0,62.53515 -1.2507,0 0,-62.53515 z"
         style="fill:#696969;fill-opacity:1;fill-rule:evenodd;stroke:none"
         inkscape:connector-curvature="0" />
      <path
         id="path4279"
         d="m 501.53194,351.44757 1.2507,0 0,58.78305 -1.2507,0 0,-58.78305 z"
         style="fill:#ffffff;fill-opacity:1;fill-rule:evenodd;stroke:none"
         inkscape:connector-curvature="0" />
      <path
         id="path4281"
         d="m 501.53194,351.44757 58.78305,0 0,1.2507 -58.78305,0 0,-1.2507 z"
         style="fill:#ffffff;fill-opacity:1;fill-rule:evenodd;stroke:none"
         inkscape:connector-curvature="0" />
      <path
         id="path4283"
         d="m 501.53194,410.23062 58.78305,0 0,1.2507 -58.78305,0 0,-1.2507 z"
         style="fill:#a0a0a0;fill-opacity:1;fill-rule:evenodd;stroke:none"
         inkscape:connector-curvature="0" />
      <path
         id="path4285"
         d="m 560.31499,351.44757 1.2507,0 0,60.03375 -1.2507,0 0,-60.03375 z"
         style="fill:#a0a0a0;fill-opacity:1;fill-rule:evenodd;stroke:none"
         inkscape:connector-curvature="0" />
      <path
         id="path4287"
         d="m 502.78264,352.69827 57.53235,0 0,57.53235 -57.53235,0 0,-57.53235 z"
         style="fill:#d2d2d2;fill-opacity:1;fill-rule:evenodd;stroke:none"
         inkscape:connector-curvature="0" />
      <path
         id="path4289"
         d="M 482.7714,332.68702"
         clip-path="url(#clipEmfPath1)"
         style="fill:none;stroke:#0000ff;stroke-width:1.2507031px;stroke-linecap:round;stroke-linejoin:round;stroke-opacity:1;stroke-dasharray:none"
         inkscape:connector-curvature="0" />
      <text
         id="text4291"
         style="font-size:10.00562477px;font-style:normal;font-weight:normal;text-align:start;text-anchor:start;fill:#0000ff;font-family:Arial"
         y="345.20108"
         x="491.52631"
         xml:space="preserve">motorSpeedSensor</text>
      <path
         id="path4293"
         d="M 482.7714,332.68702"
         style="fill:none;stroke:#0000ff;stroke-width:1.2507031px;stroke-linecap:round;stroke-linejoin:round;stroke-opacity:1;stroke-dasharray:none"
         inkscape:connector-curvature="0" />
      <path
         id="path4295"
         d="m 505.28405,352.69827 -2.50141,7.50422 5.00282,0 -2.50141,-7.50422 z"
         style="fill:#ff00ff;fill-opacity:1;fill-rule:evenodd;stroke:#ff00ff;stroke-width:1.2507031px;stroke-linecap:round;stroke-linejoin:round;stroke-opacity:1;stroke-dasharray:none"
         inkscape:connector-curvature="0" />
      <path
         id="path4297"
         d="m 505.28405,360.20249 0,47.52672"
         style="fill:none;stroke:#ff00ff;stroke-width:1.2507031px;stroke-linecap:round;stroke-linejoin:round;stroke-opacity:1;stroke-dasharray:none"
         inkscape:connector-curvature="0" />
      <path
         id="path4299"
         d="m 502.78264,403.9771 52.52953,0"
         style="fill:none;stroke:#ff00ff;stroke-width:1.2507031px;stroke-linecap:round;stroke-linejoin:round;stroke-opacity:1;stroke-dasharray:none"
         inkscape:connector-curvature="0" />
      <path
         id="path4301"
         d="m 560.31499,403.9771 -6.25352,-2.50141 0,5.00282 6.25352,-2.50141 z"
         style="fill:#ff00ff;fill-opacity:1;fill-rule:evenodd;stroke:#ff00ff;stroke-width:1.2507031px;stroke-linecap:round;stroke-linejoin:round;stroke-opacity:1;stroke-dasharray:none"
         inkscape:connector-curvature="0" />
      <path
         id="path4303"
         d="m 559.06428,381.46444 0,0 0,1.25071 0,0 -1.2507,0 0,1.2507 0,0 -1.2507,0 0,0 0,0 -1.25071,0 0,0 0,-1.2507 -1.2507,0 0,0 0,-1.25071 0,0 0,0 0,-1.2507 0,0 1.2507,0 0,-1.2507 0,0 1.25071,0 0,0 0,0 1.2507,0 0,0 0,1.2507 1.2507,0 0,0 0,1.2507 0,0 z"
         style="fill:#ebebeb;fill-opacity:1;fill-rule:evenodd;stroke:#ebebeb;stroke-width:1.2507031px;stroke-linecap:round;stroke-linejoin:round;stroke-opacity:1;stroke-dasharray:none"
         inkscape:connector-curvature="0" />
      <path
         id="path4305"
         d="m 505.28405,403.9771 26.26477,0 0,-38.7718 26.26476,0"
         style="fill:none;stroke:#000000;stroke-width:1.2507031px;stroke-linecap:round;stroke-linejoin:round;stroke-opacity:1;stroke-dasharray:none"
         inkscape:connector-curvature="0" />
      <path
         id="path4307"
         d="M 482.7714,417.23456"
         clip-path="url(#clipEmfPath2)"
         style="fill:none;stroke:#000000;stroke-width:1.2507031px;stroke-linecap:round;stroke-linejoin:round;stroke-opacity:1;stroke-dasharray:none"
         inkscape:connector-curvature="0" />
      <text
         id="text4309"
         style="font-size:10.00562477px;font-style:normal;font-weight:normal;text-align:start;text-anchor:start;fill:#000000;font-family:Arial"
         y="427.24722"
         x="525.29529"
         xml:space="preserve">0.6</text>
      <path
         id="path4311"
         d="M 482.7714,417.23456"
         style="fill:none;stroke:#000000;stroke-width:1.2507031px;stroke-linecap:round;stroke-linejoin:round;stroke-opacity:1;stroke-dasharray:none"
         inkscape:connector-curvature="0" />
      <path
         id="path4313"
         d="m 499.03054,446.50101 1.2507,0 0,63.78585 -1.2507,0 0,-63.78585 z"
         style="fill:#a0a0a0;fill-opacity:1;fill-rule:evenodd;stroke:none"
         inkscape:connector-curvature="0" />
      <path
         id="path4315"
         d="m 499.03054,446.50101 63.78585,0 0,1.2507 -63.78585,0 0,-1.2507 z"
         style="fill:#a0a0a0;fill-opacity:1;fill-rule:evenodd;stroke:none"
         inkscape:connector-curvature="0" />
      <path
         id="path4317"
         d="m 499.03054,510.28686 63.78585,0 0,1.25071 -63.78585,0 0,-1.25071 z"
         style="fill:#a0a0a0;fill-opacity:1;fill-rule:evenodd;stroke:none"
         inkscape:connector-curvature="0" />
      <path
         id="path4319"
         d="m 562.81639,446.50101 1.25071,0 0,65.03656 -1.25071,0 0,-65.03656 z"
         style="fill:#a0a0a0;fill-opacity:1;fill-rule:evenodd;stroke:none"
         inkscape:connector-curvature="0" />
      <path
         id="path4321"
         d="m 500.28124,447.75171 1.2507,0 0,61.28445 -1.2507,0 0,-61.28445 z"
         style="fill:#a0a0a0;fill-opacity:1;fill-rule:evenodd;stroke:none"
         inkscape:connector-curvature="0" />
      <path
         id="path4323"
         d="m 500.28124,447.75171 61.28445,0 0,1.2507 -61.28445,0 0,-1.2507 z"
         style="fill:#a0a0a0;fill-opacity:1;fill-rule:evenodd;stroke:none"
         inkscape:connector-curvature="0" />
      <path
         id="path4325"
         d="m 500.28124,509.03616 61.28445,0 0,1.2507 -61.28445,0 0,-1.2507 z"
         style="fill:#a0a0a0;fill-opacity:1;fill-rule:evenodd;stroke:none"
         inkscape:connector-curvature="0" />
      <path
         id="path4327"
         d="m 561.56569,447.75171 1.2507,0 0,62.53515 -1.2507,0 0,-62.53515 z"
         style="fill:#a0a0a0;fill-opacity:1;fill-rule:evenodd;stroke:none"
         inkscape:connector-curvature="0" />
      <path
         id="path4329"
         d="m 500.28124,447.75171 1.2507,0 0,61.28445 -1.2507,0 0,-61.28445 z"
         style="fill:#ffffff;fill-opacity:1;fill-rule:evenodd;stroke:none"
         inkscape:connector-curvature="0" />
      <path
         id="path4331"
         d="m 500.28124,447.75171 61.28445,0 0,1.2507 -61.28445,0 0,-1.2507 z"
         style="fill:#ffffff;fill-opacity:1;fill-rule:evenodd;stroke:none"
         inkscape:connector-curvature="0" />
      <path
         id="path4333"
         d="m 500.28124,509.03616 61.28445,0 0,1.2507 -61.28445,0 0,-1.2507 z"
         style="fill:#696969;fill-opacity:1;fill-rule:evenodd;stroke:none"
         inkscape:connector-curvature="0" />
      <path
         id="path4335"
         d="m 561.56569,447.75171 1.2507,0 0,62.53515 -1.2507,0 0,-62.53515 z"
         style="fill:#696969;fill-opacity:1;fill-rule:evenodd;stroke:none"
         inkscape:connector-curvature="0" />
      <path
         id="path4337"
         d="m 501.53194,449.00241 1.2507,0 0,58.78305 -1.2507,0 0,-58.78305 z"
         style="fill:#ffffff;fill-opacity:1;fill-rule:evenodd;stroke:none"
         inkscape:connector-curvature="0" />
      <path
         id="path4339"
         d="m 501.53194,449.00241 58.78305,0 0,1.2507 -58.78305,0 0,-1.2507 z"
         style="fill:#ffffff;fill-opacity:1;fill-rule:evenodd;stroke:none"
         inkscape:connector-curvature="0" />
      <path
         id="path4341"
         d="m 501.53194,507.78546 58.78305,0 0,1.2507 -58.78305,0 0,-1.2507 z"
         style="fill:#a0a0a0;fill-opacity:1;fill-rule:evenodd;stroke:none"
         inkscape:connector-curvature="0" />
      <path
         id="path4343"
         d="m 560.31499,449.00241 1.2507,0 0,60.03375 -1.2507,0 0,-60.03375 z"
         style="fill:#a0a0a0;fill-opacity:1;fill-rule:evenodd;stroke:none"
         inkscape:connector-curvature="0" />
      <path
         id="path4345"
         d="m 502.78264,450.25311 57.53235,0 0,57.53235 -57.53235,0 0,-57.53235 z"
         style="fill:#d2d2d2;fill-opacity:1;fill-rule:evenodd;stroke:none"
         inkscape:connector-curvature="0" />
      <path
         id="path4347"
         d="M 482.7714,430.24187"
         clip-path="url(#clipEmfPath4)"
         style="fill:none;stroke:#0000ff;stroke-width:1.2507031px;stroke-linecap:round;stroke-linejoin:round;stroke-opacity:1;stroke-dasharray:none"
         inkscape:connector-curvature="0" />
      <text
         id="text4349"
         style="font-size:10.00562477px;font-style:normal;font-weight:normal;text-align:start;text-anchor:start;fill:#0000ff;font-family:Arial"
         y="442.75592"
         x="496.52914"
         xml:space="preserve">drivelineBearing</text>
      <path
         id="path4351"
         d="M 482.7714,430.24187"
         style="fill:none;stroke:#0000ff;stroke-width:1.2507031px;stroke-linecap:round;stroke-linejoin:round;stroke-opacity:1;stroke-dasharray:none"
         inkscape:connector-curvature="0" />
      <path
         id="path4353"
         d="m 505.28405,450.25311 -2.50141,7.50422 5.00282,0 -2.50141,-7.50422 z"
         style="fill:#ff00ff;fill-opacity:1;fill-rule:evenodd;stroke:#ff00ff;stroke-width:1.2507031px;stroke-linecap:round;stroke-linejoin:round;stroke-opacity:1;stroke-dasharray:none"
         inkscape:connector-curvature="0" />
      <path
         id="path4355"
         d="m 505.28405,457.75733 0,47.52672"
         style="fill:none;stroke:#ff00ff;stroke-width:1.2507031px;stroke-linecap:round;stroke-linejoin:round;stroke-opacity:1;stroke-dasharray:none"
         inkscape:connector-curvature="0" />
      <path
         id="path4357"
         d="m 502.78264,501.53194 52.52953,0"
         style="fill:none;stroke:#ff00ff;stroke-width:1.2507031px;stroke-linecap:round;stroke-linejoin:round;stroke-opacity:1;stroke-dasharray:none"
         inkscape:connector-curvature="0" />
      <path
         id="path4359"
         d="m 560.31499,501.53194 -6.25352,-2.5014 0,5.00281 6.25352,-2.50141 z"
         style="fill:#ff00ff;fill-opacity:1;fill-rule:evenodd;stroke:#ff00ff;stroke-width:1.2507031px;stroke-linecap:round;stroke-linejoin:round;stroke-opacity:1;stroke-dasharray:none"
         inkscape:connector-curvature="0" />
      <path
         id="path4361"
         d="m 559.06428,479.01929 0,0 0,1.2507 0,0 -1.2507,0 0,1.2507 0,0 -1.2507,0 0,0 0,0 -1.25071,0 0,0 0,-1.2507 -1.2507,0 0,0 0,-1.2507 0,0 0,0 0,-1.25071 0,0 1.2507,0 0,-1.2507 0,0 1.25071,0 0,0 0,0 1.2507,0 0,0 0,1.2507 1.2507,0 0,0 0,1.25071 0,0 z"
         style="fill:#ebebeb;fill-opacity:1;fill-rule:evenodd;stroke:#ebebeb;stroke-width:1.2507031px;stroke-linecap:round;stroke-linejoin:round;stroke-opacity:1;stroke-dasharray:none"
         inkscape:connector-curvature="0" />
      <path
         id="path4363"
         d="m 505.28405,501.53194 26.26477,0 0,-38.77179 26.26476,0"
         style="fill:none;stroke:#000000;stroke-width:1.2507031px;stroke-linecap:round;stroke-linejoin:round;stroke-opacity:1;stroke-dasharray:none"
         inkscape:connector-curvature="0" />
      <path
         id="path4365"
         d="M 482.7714,514.7894"
         clip-path="url(#clipEmfPath5)"
         style="fill:none;stroke:#000000;stroke-width:1.2507031px;stroke-linecap:round;stroke-linejoin:round;stroke-opacity:1;stroke-dasharray:none"
         inkscape:connector-curvature="0" />
      <text
         id="text4367"
         style="font-size:10.00562477px;font-style:normal;font-weight:normal;text-align:start;text-anchor:start;fill:#000000;font-family:Arial"
         y="524.80206"
         x="525.29529"
         xml:space="preserve">0.8</text>
      <path
         id="path4369"
         d="M 482.7714,514.7894"
         style="fill:none;stroke:#000000;stroke-width:1.2507031px;stroke-linecap:round;stroke-linejoin:round;stroke-opacity:1;stroke-dasharray:none"
         inkscape:connector-curvature="0" />
      <path
         id="path4371"
         d="m 492.77702,205.11531 65.03656,0 0,-65.03656 -65.03656,0 0,65.03656 z"
         style="fill:#ffffff;fill-opacity:1;fill-rule:evenodd;stroke:#ff7f00;stroke-width:1.2507031px;stroke-linecap:round;stroke-linejoin:round;stroke-opacity:1;stroke-dasharray:none"
         inkscape:connector-curvature="0" />
      <path
         id="path4373"
         d="M 476.51788,123.81961"
         clip-path="url(#clipEmfPath7)"
         style="fill:none;stroke:#0000ff;stroke-width:1.2507031px;stroke-linecap:round;stroke-linejoin:round;stroke-opacity:1;stroke-dasharray:none"
         inkscape:connector-curvature="0" />
      <text
         id="text4375"
         style="font-size:10.00562477px;font-style:normal;font-weight:normal;text-align:start;text-anchor:start;fill:#0000ff;font-family:Arial"
         y="136.33366"
         x="494.02771"
         xml:space="preserve">motorKtFailure</text>
      <path
         id="path4377"
         d="M 476.51788,123.81961"
         style="fill:none;stroke:#0000ff;stroke-width:1.2507031px;stroke-linecap:round;stroke-linejoin:round;stroke-opacity:1;stroke-dasharray:none"
         inkscape:connector-curvature="0" />
      <path
         id="path4379"
         d="m 499.03054,150.08437 0,48.77742"
         style="fill:none;stroke:#c0c0c0;stroke-width:1.2507031px;stroke-linecap:round;stroke-linejoin:round;stroke-opacity:1;stroke-dasharray:none"
         inkscape:connector-curvature="0" />
      <path
         id="path4381"
         d="m 499.03054,143.83086 -2.50141,6.25351 5.00281,0 -2.5014,-6.25351 z"
         style="fill:#c0c0c0;fill-opacity:1;fill-rule:evenodd;stroke:#c0c0c0;stroke-width:1.2507031px;stroke-linecap:round;stroke-linejoin:round;stroke-opacity:1;stroke-dasharray:none"
         inkscape:connector-curvature="0" />
      <path
         id="path4383"
         d="m 496.52913,195.10968 55.03094,0"
         style="fill:none;stroke:#c0c0c0;stroke-width:1.2507031px;stroke-linecap:round;stroke-linejoin:round;stroke-opacity:1;stroke-dasharray:none"
         inkscape:connector-curvature="0" />
      <path
         id="path4385"
         d="m 554.06147,195.10968 -6.25351,-2.5014 0,5.00281 6.25351,-2.50141 z"
         style="fill:#c0c0c0;fill-opacity:1;fill-rule:evenodd;stroke:#c0c0c0;stroke-width:1.2507031px;stroke-linecap:round;stroke-linejoin:round;stroke-opacity:1;stroke-dasharray:none"
         inkscape:connector-curvature="0" />
      <path
         id="path4387"
         d="m 499.03054,195.10968 26.26476,0 0,-38.77179 26.26477,0"
         style="fill:none;stroke:#000000;stroke-width:1.2507031px;stroke-linecap:round;stroke-linejoin:round;stroke-opacity:1;stroke-dasharray:none"
         inkscape:connector-curvature="0" />
      <path
         id="path4389"
         d="M 476.51788,208.36714"
         clip-path="url(#clipEmfPath8)"
         style="fill:none;stroke:#000000;stroke-width:1.2507031px;stroke-linecap:round;stroke-linejoin:round;stroke-opacity:1;stroke-dasharray:none"
         inkscape:connector-curvature="0" />
      <text
         id="text4391"
         style="font-size:10.00562477px;font-style:normal;font-weight:normal;text-align:start;text-anchor:start;fill:#000000;font-family:Arial"
         y="220.88121"
         x="495.27844"
         xml:space="preserve">startTime=0.2</text>
      <path
         id="path4393"
         d="M 476.51788,208.36714"
         style="fill:none;stroke:#000000;stroke-width:1.2507031px;stroke-linecap:round;stroke-linejoin:round;stroke-opacity:1;stroke-dasharray:none"
         inkscape:connector-curvature="0" />
      <path
         id="path4395"
         d="m 492.77702,308.92366 65.03656,0 0,-65.03656 -65.03656,0 0,65.03656 z"
         style="fill:#ffffff;fill-opacity:1;fill-rule:evenodd;stroke:#00007f;stroke-width:1.2507031px;stroke-linecap:round;stroke-linejoin:round;stroke-opacity:1;stroke-dasharray:none"
         inkscape:connector-curvature="0" />
      <path
         id="path4397"
         d="M 476.51788,227.62796"
         clip-path="url(#clipEmfPath10)"
         style="fill:none;stroke:#0000ff;stroke-width:1.2507031px;stroke-linecap:round;stroke-linejoin:round;stroke-opacity:1;stroke-dasharray:none"
         inkscape:connector-curvature="0" />
      <text
         id="text4399"
         style="font-size:10.00562477px;font-style:normal;font-weight:normal;text-align:start;text-anchor:start;fill:#0000ff;font-family:Arial"
         y="240.14203"
         x="491.52631"
         xml:space="preserve">drivelineFriction</text>
      <path
         id="path4401"
         d="M 476.51788,227.62796"
         style="fill:none;stroke:#0000ff;stroke-width:1.2507031px;stroke-linecap:round;stroke-linejoin:round;stroke-opacity:1;stroke-dasharray:none"
         inkscape:connector-curvature="0" />
      <path
         id="path4403"
         d="m 499.03054,253.89273 0,48.77742"
         style="fill:none;stroke:#c0c0c0;stroke-width:1.2507031px;stroke-linecap:round;stroke-linejoin:round;stroke-opacity:1;stroke-dasharray:none"
         inkscape:connector-curvature="0" />
      <path
         id="path4405"
         d="m 499.03054,247.63921 -2.50141,6.25352 5.00281,0 -2.5014,-6.25352 z"
         style="fill:#c0c0c0;fill-opacity:1;fill-rule:evenodd;stroke:#c0c0c0;stroke-width:1.2507031px;stroke-linecap:round;stroke-linejoin:round;stroke-opacity:1;stroke-dasharray:none"
         inkscape:connector-curvature="0" />
      <path
         id="path4407"
         d="m 496.52913,298.91804 55.03094,0"
         style="fill:none;stroke:#c0c0c0;stroke-width:1.2507031px;stroke-linecap:round;stroke-linejoin:round;stroke-opacity:1;stroke-dasharray:none"
         inkscape:connector-curvature="0" />
      <path
         id="path4409"
         d="m 554.06147,298.91804 -6.25351,-2.50141 0,5.00282 6.25351,-2.50141 z"
         style="fill:#c0c0c0;fill-opacity:1;fill-rule:evenodd;stroke:#c0c0c0;stroke-width:1.2507031px;stroke-linecap:round;stroke-linejoin:round;stroke-opacity:1;stroke-dasharray:none"
         inkscape:connector-curvature="0" />
      <path
         id="path4411"
         d="m 499.03054,298.91804 26.26476,0 0,-38.7718 26.26477,0"
         style="fill:none;stroke:#000000;stroke-width:1.2507031px;stroke-linecap:round;stroke-linejoin:round;stroke-opacity:1;stroke-dasharray:none"
         inkscape:connector-curvature="0" />
      <path
         id="path4413"
         d="M 476.51788,312.1755"
         clip-path="url(#clipEmfPath11)"
         style="fill:none;stroke:#000000;stroke-width:1.2507031px;stroke-linecap:round;stroke-linejoin:round;stroke-opacity:1;stroke-dasharray:none"
         inkscape:connector-curvature="0" />
      <text
         id="text4415"
         style="font-size:10.00562477px;font-style:normal;font-weight:normal;text-align:start;text-anchor:start;fill:#000000;font-family:Arial"
         y="324.68958"
         x="495.27844"
         xml:space="preserve">startTime=0.4</text>
      <path
         id="path4417"
         d="M 476.51788,312.1755"
         style="fill:none;stroke:#000000;stroke-width:1.2507031px;stroke-linecap:round;stroke-linejoin:round;stroke-opacity:1;stroke-dasharray:none"
         inkscape:connector-curvature="0" />
      <path
         id="path4419"
         d="m 561.56569,172.59703 223.87585,0 0,156.33788 77.5436,0"
         style="fill:none;stroke:#ffffff;stroke-width:6.25351524px;stroke-linecap:round;stroke-linejoin:round;stroke-opacity:1;stroke-dasharray:none"
         inkscape:connector-curvature="0" />
      <path
         id="path4421"
         d="m 561.56569,172.59703 223.87585,0 0,156.33788 77.5436,0"
         style="fill:none;stroke:#ff7f00;stroke-width:1.2507031px;stroke-linecap:round;stroke-linejoin:round;stroke-opacity:1;stroke-dasharray:none"
         inkscape:connector-curvature="0" />
      <path
         id="path4423"
         d="M 580.57639,163.09168"
         clip-path="url(#clipEmfPath13)"
         style="fill:none;stroke:#000000;stroke-width:1.2507031px;stroke-linecap:round;stroke-linejoin:round;stroke-opacity:1;stroke-dasharray:none"
         inkscape:connector-curvature="0" />
      <text
         id="text4425"
         style="font-size:10.00562477px;font-style:normal;font-weight:normal;text-align:start;text-anchor:start;fill:#000000;font-family:Arial"
         y="169.35223"
         x="580.57642"
         xml:space="preserve">motor.ktFault.externalIntegerFault</text>
      <path
         id="path4427"
         d="M 580.57639,163.09168"
         style="fill:none;stroke:#000000;stroke-width:1.2507031px;stroke-linecap:round;stroke-linejoin:round;stroke-opacity:1;stroke-dasharray:none"
         inkscape:connector-curvature="0" />
      <path
         id="path4429"
         d="m 561.56569,276.40538 223.87585,0 0,52.52953 77.5436,0"
         style="fill:none;stroke:#ffffff;stroke-width:6.25351524px;stroke-linecap:round;stroke-linejoin:round;stroke-opacity:1;stroke-dasharray:none"
         inkscape:connector-curvature="0" />
      <path
         id="path4431"
         d="m 561.56569,276.40538 223.87585,0 0,52.52953 77.5436,0"
         style="fill:none;stroke:#00007f;stroke-width:1.2507031px;stroke-linecap:round;stroke-linejoin:round;stroke-opacity:1;stroke-dasharray:none"
         inkscape:connector-curvature="0" />
      <path
         id="path4433"
         d="M 580.57639,267.15019"
         clip-path="url(#clipEmfPath15)"
         style="fill:none;stroke:#000000;stroke-width:1.2507031px;stroke-linecap:round;stroke-linejoin:round;stroke-opacity:1;stroke-dasharray:none"
         inkscape:connector-curvature="0" />
      <text
         id="text4435"
         style="font-size:10.00562477px;font-style:normal;font-weight:normal;text-align:start;text-anchor:start;fill:#000000;font-family:Arial"
         y="273.41074"
         x="580.57642"
         xml:space="preserve">driveline.friction.externalRealFault</text>
      <path
         id="path4437"
         d="M 580.57639,267.15019"
         style="fill:none;stroke:#000000;stroke-width:1.2507031px;stroke-linecap:round;stroke-linejoin:round;stroke-opacity:1;stroke-dasharray:none"
         inkscape:connector-curvature="0" />
      <path
         id="path4439"
         d="m 567.81921,381.46444 217.62233,0 0,-52.52953 77.5436,0"
         style="fill:none;stroke:#ffffff;stroke-width:6.25351524px;stroke-linecap:round;stroke-linejoin:round;stroke-opacity:1;stroke-dasharray:none"
         inkscape:connector-curvature="0" />
      <path
         id="path4441"
         d="m 567.81921,381.46444 217.62233,0 0,-52.52953 77.5436,0"
         style="fill:none;stroke:#ff00ff;stroke-width:1.2507031px;stroke-linecap:round;stroke-linejoin:round;stroke-opacity:1;stroke-dasharray:none"
         inkscape:connector-curvature="0" />
      <path
         id="path4443"
         d="M 587.08003,371.20866"
         clip-path="url(#clipEmfPath17)"
         style="fill:none;stroke:#000000;stroke-width:1.2507031px;stroke-linecap:round;stroke-linejoin:round;stroke-opacity:1;stroke-dasharray:none"
         inkscape:connector-curvature="0" />
      <text
         id="text4445"
         style="font-size:10.00562477px;font-style:normal;font-weight:normal;text-align:start;text-anchor:start;fill:#000000;font-family:Arial"
         y="377.46921"
         x="587.08002"
         xml:space="preserve">motor.speedSensor.externalBooleanFault</text>
      <path
         id="path4447"
         d="M 587.08003,371.20866"
         style="fill:none;stroke:#000000;stroke-width:1.2507031px;stroke-linecap:round;stroke-linejoin:round;stroke-opacity:1;stroke-dasharray:none"
         inkscape:connector-curvature="0" />
      <path
         id="path4449"
         d="m 567.81921,479.01929 217.62233,0 0,-150.08438 77.5436,0"
         style="fill:none;stroke:#ffffff;stroke-width:6.25351524px;stroke-linecap:round;stroke-linejoin:round;stroke-opacity:1;stroke-dasharray:none"
         inkscape:connector-curvature="0" />
      <path
         id="path4451"
         d="m 567.81921,479.01929 217.62233,0 0,-150.08438 77.5436,0"
         style="fill:none;stroke:#ff00ff;stroke-width:1.2507031px;stroke-linecap:round;stroke-linejoin:round;stroke-opacity:1;stroke-dasharray:none"
         inkscape:connector-curvature="0" />
      <path
         id="path4453"
         d="M 587.08003,468.76351"
         clip-path="url(#clipEmfPath19)"
         style="fill:none;stroke:#000000;stroke-width:1.2507031px;stroke-linecap:round;stroke-linejoin:round;stroke-opacity:1;stroke-dasharray:none"
         inkscape:connector-curvature="0" />
      <text
         id="text4455"
         style="font-size:10.00562477px;font-style:normal;font-weight:normal;text-align:start;text-anchor:start;fill:#000000;font-family:Arial"
         y="475.02405"
         x="587.08002"
         xml:space="preserve">driveline.bearing.fault.externalBooleanFault</text>
      <path
         id="path4457"
         d="M 587.08003,468.76351"
         style="fill:none;stroke:#000000;stroke-width:1.2507031px;stroke-linecap:round;stroke-linejoin:round;stroke-opacity:1;stroke-dasharray:none"
         inkscape:connector-curvature="0" />
      <path
         id="path4459"
         d="m 789.19365,276.40538 0,1.25071 -1.2507,1.2507 -1.2507,1.2507 -1.25071,0 -2.5014,0 -1.2507,-1.2507 -1.25071,-1.2507 0,-1.25071 0,-2.5014 1.25071,-1.2507 1.2507,-1.25071 2.5014,0 1.25071,0 1.2507,1.25071 1.2507,1.2507 0,2.5014 z"
         style="fill:#ffffff;fill-opacity:1;fill-rule:evenodd;stroke:#ff7f00;stroke-width:1.2507031px;stroke-linecap:round;stroke-linejoin:round;stroke-opacity:1;stroke-dasharray:none"
         inkscape:connector-curvature="0" />
      <path
         id="path4461"
         d="m 789.19365,328.93491 0,1.25071 -1.2507,1.2507 -1.2507,1.2507 -1.25071,0 -2.5014,0 -1.2507,-1.2507 -1.25071,-1.2507 0,-1.25071 0,-2.5014 1.25071,-1.2507 1.2507,-1.25071 2.5014,0 1.25071,0 1.2507,1.25071 1.2507,1.2507 0,2.5014 z"
         style="fill:#ffffff;fill-opacity:1;fill-rule:evenodd;stroke:#ff7f00;stroke-width:1.2507031px;stroke-linecap:round;stroke-linejoin:round;stroke-opacity:1;stroke-dasharray:none"
         inkscape:connector-curvature="0" />
      <path
         id="path4463"
         d="m 789.19365,328.93491 0,1.25071 -1.2507,1.2507 -1.2507,1.2507 -1.25071,0 -2.5014,0 -1.2507,-1.2507 -1.25071,-1.2507 0,-1.25071 0,-2.5014 1.25071,-1.2507 1.2507,-1.25071 2.5014,0 1.25071,0 1.2507,1.25071 1.2507,1.2507 0,2.5014 z"
         style="fill:#ffffff;fill-opacity:1;fill-rule:evenodd;stroke:#ff7f00;stroke-width:1.2507031px;stroke-linecap:round;stroke-linejoin:round;stroke-opacity:1;stroke-dasharray:none"
         inkscape:connector-curvature="0" />
      <path
         id="path4465"
         d="m 789.19365,328.93491 0,1.25071 -1.2507,1.2507 -1.2507,1.2507 -1.25071,0 -2.5014,0 -1.2507,-1.2507 -1.25071,-1.2507 0,-1.25071 0,-2.5014 1.25071,-1.2507 1.2507,-1.25071 2.5014,0 1.25071,0 1.2507,1.25071 1.2507,1.2507 0,2.5014 z"
         style="fill:#ffffff;fill-opacity:1;fill-rule:evenodd;stroke:#00007f;stroke-width:1.2507031px;stroke-linecap:round;stroke-linejoin:round;stroke-opacity:1;stroke-dasharray:none"
         inkscape:connector-curvature="0" />
      <path
         id="path4467"
         d="m 789.19365,328.93491 0,1.25071 -1.2507,1.2507 -1.2507,1.2507 -1.25071,0 -2.5014,0 -1.2507,-1.2507 -1.25071,-1.2507 0,-1.25071 0,-2.5014 1.25071,-1.2507 1.2507,-1.25071 2.5014,0 1.25071,0 1.2507,1.25071 1.2507,1.2507 0,2.5014 z"
         style="fill:#ffffff;fill-opacity:1;fill-rule:evenodd;stroke:#00007f;stroke-width:1.2507031px;stroke-linecap:round;stroke-linejoin:round;stroke-opacity:1;stroke-dasharray:none"
         inkscape:connector-curvature="0" />
      <path
         id="path4469"
         d="m 789.19365,380.21374 0,1.2507 -1.2507,1.25071 -1.2507,1.2507 -1.25071,0 -2.5014,0 -1.2507,-1.2507 -1.25071,-1.25071 0,-1.2507 0,-2.5014 1.25071,-1.25071 1.2507,-1.2507 2.5014,0 1.25071,0 1.2507,1.2507 1.2507,1.25071 0,2.5014 z"
         style="fill:#ffffff;fill-opacity:1;fill-rule:evenodd;stroke:#ff00ff;stroke-width:1.2507031px;stroke-linecap:round;stroke-linejoin:round;stroke-opacity:1;stroke-dasharray:none"
         inkscape:connector-curvature="0" />
      <path
         id="path4471"
         d="m 836.72037,312.67577 52.52953,0 6.25352,6.25352 -6.25352,22.51266 -6.25351,3.7521 -40.0225,0 -6.25352,-3.7521 -6.25351,-22.51266 6.25351,-6.25352 z"
         style="fill:#ff0000;fill-opacity:1;fill-rule:evenodd;stroke:#000000;stroke-width:1.2507031px;stroke-linecap:round;stroke-linejoin:round;stroke-opacity:1;stroke-dasharray:none"
         inkscape:connector-curvature="0" />
      <path
         id="path4473"
         d="m 844.22459,322.6814 0,0 0,1.2507 0,0 0,0 -1.2507,0 0,0 0,0 0,0 -1.25071,0 0,0 0,-1.2507 0,0 0,0 0,0 0,-1.2507 1.25071,0 0,0 0,0 0,0 1.2507,0 0,0 0,1.2507 0,0 0,0 z"
         style="fill:#000000;fill-opacity:1;fill-rule:evenodd;stroke:#000000;stroke-width:1.2507031px;stroke-linecap:round;stroke-linejoin:round;stroke-opacity:1;stroke-dasharray:none"
         inkscape:connector-curvature="0" />
      <path
         id="path4475"
         d="m 864.23584,322.6814 0,0 0,1.2507 0,0 0,0 -1.2507,0 0,0 0,0 0,0 -1.25071,0 0,0 0,-1.2507 0,0 0,0 0,0 0,-1.2507 1.25071,0 0,0 0,0 0,0 1.2507,0 0,0 0,1.2507 0,0 0,0 z"
         style="fill:#000000;fill-opacity:1;fill-rule:evenodd;stroke:#000000;stroke-width:1.2507031px;stroke-linecap:round;stroke-linejoin:round;stroke-opacity:1;stroke-dasharray:none"
         inkscape:connector-curvature="0" />
      <path
         id="path4477"
         d="m 884.24709,322.6814 0,0 0,1.2507 0,0 0,0 -1.2507,0 0,0 0,0 0,0 -1.25071,0 0,0 0,-1.2507 0,0 0,0 0,0 0,-1.2507 1.25071,0 0,0 0,0 0,0 1.2507,0 0,0 0,1.2507 0,0 0,0 z"
         style="fill:#000000;fill-opacity:1;fill-rule:evenodd;stroke:#000000;stroke-width:1.2507031px;stroke-linecap:round;stroke-linejoin:round;stroke-opacity:1;stroke-dasharray:none"
         inkscape:connector-curvature="0" />
      <path
         id="path4479"
         d="m 854.23021,335.18843 0,0 0,1.2507 0,0 0,0 -1.2507,0 0,0 0,0 0,0 -1.2507,0 0,0 0,-1.2507 0,0 0,0 0,0 0,-1.2507 1.2507,0 0,0 0,0 0,0 1.2507,0 0,0 0,1.2507 0,0 0,0 z"
         style="fill:#000000;fill-opacity:1;fill-rule:evenodd;stroke:#000000;stroke-width:1.2507031px;stroke-linecap:round;stroke-linejoin:round;stroke-opacity:1;stroke-dasharray:none"
         inkscape:connector-curvature="0" />
      <path
         id="path4481"
         d="m 874.24146,335.18843 0,0 0,1.2507 0,0 0,0 -1.2507,0 0,0 0,0 0,0 -1.2507,0 0,0 0,-1.2507 0,0 0,0 0,0 0,-1.2507 1.2507,0 0,0 0,0 0,0 1.2507,0 0,0 0,1.2507 0,0 0,0 z"
         style="fill:#000000;fill-opacity:1;fill-rule:evenodd;stroke:#000000;stroke-width:1.2507031px;stroke-linecap:round;stroke-linejoin:round;stroke-opacity:1;stroke-dasharray:none"
         inkscape:connector-curvature="0" />
      <path
         id="path4483"
         d="M 765.43029,283.40933"
         clip-path="url(#clipEmfPath21)"
         style="fill:none;stroke:#000000;stroke-width:1.2507031px;stroke-linecap:round;stroke-linejoin:round;stroke-opacity:1;stroke-dasharray:none"
         inkscape:connector-curvature="0" />
      <text
         id="text4485"
         style="font-size:15.00843716px;font-style:normal;font-weight:normal;text-align:start;text-anchor:start;fill:#000000;font-family:Arial"
         y="302.18042"
         x="844.22461"
         xml:space="preserve">faults</text>
      <path
         id="path4487"
         d="M 765.43029,283.40933"
         style="fill:none;stroke:#000000;stroke-width:1.2507031px;stroke-linecap:round;stroke-linejoin:round;stroke-opacity:1;stroke-dasharray:none"
         inkscape:connector-curvature="0" />
      <path
         id="path4489"
         d="m 564.0671,377.71234 7.50422,3.7521 -7.50422,3.75211 0,-7.50421 z"
         style="fill:#ffffff;fill-opacity:1;fill-rule:evenodd;stroke:#ff00ff;stroke-width:1.2507031px;stroke-linecap:round;stroke-linejoin:round;stroke-opacity:1;stroke-dasharray:none"
         inkscape:connector-curvature="0" />
      <path
         id="path4491"
         d="m 564.0671,475.26718 7.50422,3.75211 -7.50422,3.75211 0,-7.50422 z"
         style="fill:#ffffff;fill-opacity:1;fill-rule:evenodd;stroke:#ff00ff;stroke-width:1.2507031px;stroke-linecap:round;stroke-linejoin:round;stroke-opacity:1;stroke-dasharray:none"
         inkscape:connector-curvature="0" />
      <path
         id="path4493"
         d="m 557.81358,168.84492 7.50422,3.75211 -7.50422,3.75211 0,-7.50422 z"
         style="fill:#ffffff;fill-opacity:1;fill-rule:evenodd;stroke:#ff7f00;stroke-width:1.2507031px;stroke-linecap:round;stroke-linejoin:round;stroke-opacity:1;stroke-dasharray:none"
         inkscape:connector-curvature="0" />
      <path
         id="path4495"
         d="m 557.81358,272.65328 7.50422,3.7521 -7.50422,3.75211 0,-7.50421 z"
         style="fill:#ffffff;fill-opacity:1;fill-rule:evenodd;stroke:#00007f;stroke-width:1.2507031px;stroke-linecap:round;stroke-linejoin:round;stroke-opacity:1;stroke-dasharray:none"
         inkscape:connector-curvature="0" />
    </g>
  </g>
</svg>
